<?xml version="1.0" encoding="UTF-8" standalone="no"?>
<!-- Generator: Adobe Illustrator 19.2.0, SVG Export Plug-In . SVG Version: 6.00 Build 0)  -->

<svg
   xmlns:dc="http://purl.org/dc/elements/1.1/"
   xmlns:cc="http://creativecommons.org/ns#"
   xmlns:rdf="http://www.w3.org/1999/02/22-rdf-syntax-ns#"
   xmlns:svg="http://www.w3.org/2000/svg"
   xmlns="http://www.w3.org/2000/svg"
   xmlns:xlink="http://www.w3.org/1999/xlink"
   xmlns:sodipodi="http://sodipodi.sourceforge.net/DTD/sodipodi-0.dtd"
   xmlns:inkscape="http://www.inkscape.org/namespaces/inkscape"
   version="1.1"
   id="Ebene_1"
   x="0px"
   y="0px"
   viewBox="0 0 602 480"
   style="enable-background:new 0 0 602 480;"
   xml:space="preserve"
   sodipodi:docname="matrix-cvest.svg"
   inkscape:version="0.92.2 (5c3e80d, 2017-08-06)"
   enable-background="new"><metadata
     id="metadata200"><rdf:RDF><cc:Work
         rdf:about=""><dc:format>image/svg+xml</dc:format><dc:type
           rdf:resource="http://purl.org/dc/dcmitype/StillImage" /><dc:title>Startmatrix</dc:title></cc:Work></rdf:RDF></metadata><defs
     id="defs198"><linearGradient
       inkscape:collect="always"
       id="linearGradient931"><stop
         style="stop-color:#00c4ff;stop-opacity:1"
         offset="0"
         id="stop927" /><stop
         style="stop-color:#3829ff;stop-opacity:1"
         offset="1"
         id="stop929" /></linearGradient><linearGradient
       inkscape:collect="always"
       xlink:href="#linearGradient931"
       id="linearGradient933"
       x1="67.184364"
       y1="44.71983"
       x2="577.49493"
       y2="446.41473"
       gradientUnits="userSpaceOnUse" /></defs><sodipodi:namedview
     pagecolor="#ffffff"
     bordercolor="#666666"
     borderopacity="1"
     objecttolerance="10"
     gridtolerance="10"
     guidetolerance="10"
     inkscape:pageopacity="0"
     inkscape:pageshadow="2"
     inkscape:window-width="1505"
     inkscape:window-height="1074"
     id="namedview196"
     showgrid="false"
     inkscape:zoom="0.98333333"
     inkscape:cx="155.26341"
     inkscape:cy="260.99892"
     inkscape:window-x="138"
     inkscape:window-y="189"
     inkscape:window-maximized="0"
     inkscape:current-layer="Ebene_1" /><style
     type="text/css"
     id="style2">
	.st0{fill:none;stroke:#C4C4C4;stroke-width:0.25;stroke-miterlimit:10;}
	.st1{fill:#FFFFFF;}
	.st2{fill:none;stroke:#2DEA2D;stroke-width:0.5;stroke-miterlimit:10;}
	.st3{fill:none;stroke:#7F847F;stroke-width:0.25;stroke-miterlimit:10;}
	.st4{fill:#00F4FF;}
	.st5{fill:#00E2FF;}
	.st6{fill:#00A4D1;}
	.st7{fill:#00AEFF;}
	.st8{fill:#0099FF;}
</style><title
     id="title4">Startmatrix</title><g
     id="horizontale_Linien"><line
       class="st0"
       x1="281"
       y1="441"
       x2="282.8"
       y2="421"
       id="line6" /><line
       class="st0"
       x1="573.7"
       y1="421"
       x2="601"
       y2="441"
       id="line8" /><line
       class="st0"
       x1="321"
       y1="441"
       x2="319.2"
       y2="421"
       id="line10" /><line
       class="st0"
       x1="241"
       y1="441"
       x2="246.5"
       y2="421"
       id="line12" /><line
       class="st0"
       x1="201"
       y1="441"
       x2="210.1"
       y2="421"
       id="line14" /><line
       class="st0"
       x1="161"
       y1="441"
       x2="173.7"
       y2="421"
       id="line16" /><line
       class="st0"
       x1="121"
       y1="441"
       x2="137.4"
       y2="421"
       id="line18" /><line
       class="st0"
       x1="81"
       y1="441"
       x2="101"
       y2="421"
       id="line20" /><line
       class="st0"
       x1="41"
       y1="441"
       x2="64.6"
       y2="421"
       id="line22" /><line
       class="st0"
       x1="361"
       y1="441"
       x2="355.5"
       y2="421"
       id="line24" /><line
       class="st0"
       x1="401"
       y1="441"
       x2="391.9"
       y2="421"
       id="line26" /><line
       class="st0"
       x1="441"
       y1="441"
       x2="428.3"
       y2="421"
       id="line28" /><line
       class="st0"
       x1="481"
       y1="441"
       x2="464.6"
       y2="421"
       id="line30" /><line
       class="st0"
       x1="521"
       y1="441"
       x2="501"
       y2="421"
       id="line32" /><line
       class="st0"
       x1="561"
       y1="441"
       x2="537.3"
       y2="421"
       id="line34" /><polyline
       class="st0"
       points="1,441 21,426.3 28.3,421  "
       id="polyline36" /></g><g
     id="horizontale_Punkte"><ellipse
       transform="matrix(0.9999 -1.186796e-02 1.186796e-02 0.9999 -5.2338 4.296460e-02)"
       class="st1"
       cx="1"
       cy="441"
       rx="1"
       ry="1"
       id="ellipse39" /><ellipse
       transform="matrix(0.9999 -1.186796e-02 1.186796e-02 0.9999 -5.2309 0.5178)"
       class="st1"
       cx="41"
       cy="441"
       rx="1"
       ry="1"
       id="ellipse41" /><ellipse
       transform="matrix(0.9999 -1.186796e-02 1.186796e-02 0.9999 -5.2281 0.9925)"
       class="st1"
       cx="81"
       cy="441"
       rx="1"
       ry="1"
       id="ellipse43" /><ellipse
       transform="matrix(0.9999 -1.186796e-02 1.186796e-02 0.9999 -5.2253 1.4671)"
       class="st1"
       cx="121"
       cy="441"
       rx="1"
       ry="1"
       id="ellipse45" /><ellipse
       transform="matrix(0.9999 -1.186796e-02 1.186796e-02 0.9999 -5.2225 1.9418)"
       class="st1"
       cx="161"
       cy="441"
       rx="1"
       ry="1"
       id="ellipse47" /><ellipse
       transform="matrix(0.9999 -1.186796e-02 1.186796e-02 0.9999 -5.2196 2.4166)"
       class="st1"
       cx="201"
       cy="441"
       rx="1"
       ry="1"
       id="ellipse49" /><ellipse
       transform="matrix(0.9999 -1.186796e-02 1.186796e-02 0.9999 -5.2169 2.8913)"
       class="st1"
       cx="241"
       cy="441"
       rx="1"
       ry="1"
       id="ellipse51" /><ellipse
       transform="matrix(0.9999 -1.186796e-02 1.186796e-02 0.9999 -5.214 3.366)"
       class="st1"
       cx="281"
       cy="441"
       rx="1"
       ry="1"
       id="ellipse53" /><ellipse
       transform="matrix(0.9999 -1.186796e-02 1.186796e-02 0.9999 -5.2111 3.8408)"
       class="st1"
       cx="321"
       cy="441"
       rx="1"
       ry="1"
       id="ellipse55" /><ellipse
       transform="matrix(0.9999 -1.186796e-02 1.186796e-02 0.9999 -5.2084 4.3155)"
       class="st1"
       cx="361"
       cy="441"
       rx="1"
       ry="1"
       id="ellipse57" /><ellipse
       transform="matrix(0.9999 -1.186796e-02 1.186796e-02 0.9999 -5.2055 4.7902)"
       class="st1"
       cx="401"
       cy="441"
       rx="1"
       ry="1"
       id="ellipse59" /><ellipse
       transform="matrix(0.9999 -1.186796e-02 1.186796e-02 0.9999 -5.2027 5.2649)"
       class="st1"
       cx="441"
       cy="441"
       rx="1"
       ry="1"
       id="ellipse61" /><ellipse
       transform="matrix(0.9999 -1.186796e-02 1.186796e-02 0.9999 -5.1999 5.7397)"
       class="st1"
       cx="481"
       cy="441"
       rx="1"
       ry="1"
       id="ellipse63" /><ellipse
       transform="matrix(0.9999 -1.186796e-02 1.186796e-02 0.9999 -5.1971 6.2143)"
       class="st1"
       cx="521"
       cy="441"
       rx="1"
       ry="1"
       id="ellipse65" /><ellipse
       transform="matrix(0.9999 -1.186796e-02 1.186796e-02 0.9999 -5.1942 6.689)"
       class="st1"
       cx="561"
       cy="441"
       rx="1"
       ry="1"
       id="ellipse67" /><ellipse
       transform="matrix(0.9999 -1.186796e-02 1.186796e-02 0.9999 -5.1914 7.1637)"
       class="st1"
       cx="601"
       cy="441"
       rx="1"
       ry="1"
       id="ellipse69" /><path
       class="st2"
       d="M441,441"
       id="path71" /><path
       class="st3"
       d="M601,441"
       id="path73" /></g><g
     id="vertikale_Linien"><line
       class="st0"
       x1="1"
       y1="401"
       x2="21"
       y2="389"
       id="line76" /><line
       class="st0"
       x1="1"
       y1="361"
       x2="21"
       y2="351.6"
       id="line78" /><line
       class="st0"
       x1="1"
       y1="321"
       x2="21"
       y2="314.3"
       id="line80" /><line
       class="st0"
       x1="1"
       y1="281"
       x2="21"
       y2="277"
       id="line82" /><line
       class="st0"
       x1="1"
       y1="241"
       x2="21"
       y2="239.7"
       id="line84" /><line
       class="st0"
       x1="1"
       y1="1.1"
       x2="21"
       y2="15.7"
       id="line86" /><line
       class="st0"
       x1="1"
       y1="41.1"
       x2="21"
       y2="53.1"
       id="line88" /><line
       class="st0"
       x1="1"
       y1="81.1"
       x2="21"
       y2="90.4"
       id="line90" /><line
       class="st0"
       x1="1"
       y1="121.1"
       x2="21"
       y2="127.7"
       id="line92" /><line
       class="st0"
       x1="1"
       y1="161.1"
       x2="21"
       y2="165.1"
       id="line94" /><line
       class="st0"
       x1="1"
       y1="201.1"
       x2="21"
       y2="202.4"
       id="line96" /></g><g
     id="vertikale_Punkte"><circle
       class="st1"
       cx="1"
       cy="401"
       r="1"
       id="circle99" /><ellipse
       transform="matrix(0.9999 -1.186796e-02 1.186796e-02 0.9999 -4.7591 4.021041e-02)"
       class="st1"
       cx="1"
       cy="401"
       rx="1"
       ry="1"
       id="ellipse101" /><ellipse
       transform="matrix(0.9999 -1.186796e-02 1.186796e-02 0.9999 -4.2843 3.733684e-02)"
       class="st1"
       cx="1"
       cy="361"
       rx="1"
       ry="1"
       id="ellipse103" /><ellipse
       transform="matrix(0.9999 -1.186796e-02 1.186796e-02 0.9999 -3.8096 3.458265e-02)"
       class="st1"
       cx="1"
       cy="321"
       rx="1"
       ry="1"
       id="ellipse105" /><ellipse
       transform="matrix(0.9999 -1.186796e-02 1.186796e-02 0.9999 -3.3349 3.170978e-02)"
       class="st1"
       cx="1"
       cy="281"
       rx="1"
       ry="1"
       id="ellipse107" /><ellipse
       transform="matrix(0.9999 -1.186796e-02 1.186796e-02 0.9999 -2.8602 2.883691e-02)"
       class="st1"
       cx="1"
       cy="241"
       rx="1"
       ry="1"
       id="ellipse109" /><ellipse
       transform="matrix(0.9999 -1.186796e-02 1.186796e-02 0.9999 -2.3854 2.608202e-02)"
       class="st1"
       cx="1"
       cy="201"
       rx="1"
       ry="1"
       id="ellipse111" /><circle
       class="st1"
       cx="1"
       cy="161"
       r="1"
       id="circle113" /><ellipse
       transform="matrix(0.9999 -1.186796e-02 1.186796e-02 0.9999 -1.9107 2.320915e-02)"
       class="st1"
       cx="1"
       cy="161"
       rx="1"
       ry="1"
       id="ellipse115" /><ellipse
       transform="matrix(0.9999 -1.186796e-02 1.186796e-02 0.9999 -1.436 2.045496e-02)"
       class="st1"
       cx="1"
       cy="121"
       rx="1"
       ry="1"
       id="ellipse117" /><ellipse
       transform="matrix(0.9999 -1.186796e-02 1.186796e-02 0.9999 -0.9612 1.758139e-02)"
       class="st1"
       cx="1"
       cy="81"
       rx="1"
       ry="1"
       id="ellipse119" /><ellipse
       transform="matrix(0.9999 -1.186796e-02 1.186796e-02 0.9999 -0.4866 1.482720e-02)"
       class="st1"
       cx="1"
       cy="41"
       rx="1"
       ry="1"
       id="ellipse121" /><ellipse
       transform="matrix(0.9999 -1.186796e-02 1.186796e-02 0.9999 -1.186816e-02 1.195434e-02)"
       class="st1"
       cx="1"
       cy="1"
       rx="1"
       ry="1"
       id="ellipse123" /></g><text
     xml:space="preserve"
     style="font-style:normal;font-weight:normal;font-size:40px;line-height:1.25;font-family:Input;letter-spacing:0px;word-spacing:0px;fill:#000000;fill-opacity:1;stroke:none;-inkscape-font-specification:Input;font-stretch:normal;font-variant:normal;"
     x="147.2"
     y="320.10001"
     id="text3893"><tspan
       sodipodi:role="line"
       id="tspan3891"
       x="147.2"
       y="355.49063" /></text>
<flowRoot
     xml:space="preserve"
     id="flowRoot3895"
     style="fill:black;fill-opacity:1;stroke:none;font-family:Input;font-style:normal;font-weight:normal;font-size:40px;line-height:1.25;letter-spacing:0px;word-spacing:0px;-inkscape-font-specification:Input;font-stretch:normal;font-variant:normal;"><flowRegion
       id="flowRegion3897"
       style="-inkscape-font-specification:Input;font-family:Input;font-weight:normal;font-style:normal;font-stretch:normal;font-variant:normal;"><rect
         id="rect3899"
         width="161.2"
         height="271.5"
         x="194.3"
         y="149.5"
         style="-inkscape-font-specification:Input;font-family:Input;font-weight:normal;font-style:normal;font-stretch:normal;font-variant:normal;" /></flowRegion><flowPara
       id="flowPara3901" /></flowRoot><text
     xml:space="preserve"
     style="font-style:normal;font-variant:normal;font-weight:normal;font-stretch:normal;font-size:74.66666667px;line-height:1.25;font-family:Lato;-inkscape-font-specification:Lato;letter-spacing:0px;word-spacing:0px;fill:#00f4ff;fill-opacity:1;stroke:none;"
     x="61.050846"
     y="93.559334"
     id="text3924"><tspan
       sodipodi:role="line"
       x="61.050846"
       y="93.559334"
       id="tspan3930"
       style="font-style:normal;font-variant:normal;font-weight:normal;font-stretch:normal;font-family:Lato;-inkscape-font-specification:Lato;fill:#00f4ff;fill-opacity:1;font-size:74.66666667px;letter-spacing:15px">CVEST</tspan></text>
<text
     xml:space="preserve"
     style="font-style:normal;font-weight:200;font-size:40px;line-height:1.25;font-family:Lato;letter-spacing:0px;word-spacing:0px;fill:url(#linearGradient933);fill-opacity:1;stroke:none;-inkscape-font-specification:'Lato Ultra-Light';font-stretch:normal;font-variant:normal"
     x="60"
     y="186.54239"
     id="text4746"><tspan
       sodipodi:role="line"
       id="tspan4744"
       x="60"
       y="186.54239"
       style="font-style:normal;font-variant:normal;font-weight:200;font-stretch:normal;font-size:74.66666412px;font-family:Lato;-inkscape-font-specification:'Lato Ultra-Light';fill:url(#linearGradient933);fill-opacity:1;letter-spacing:15px">Crypto</tspan><tspan
       sodipodi:role="line"
       x="60"
       y="279.87573"
       id="tspan4748"
       style="font-style:normal;font-variant:normal;font-weight:200;font-stretch:normal;font-size:74.66666412px;font-family:Lato;-inkscape-font-specification:'Lato Ultra-Light';fill:url(#linearGradient933);fill-opacity:1;letter-spacing:15px">Investing </tspan><tspan
       sodipodi:role="line"
       x="60"
       y="373.20905"
       id="tspan4750"
       style="font-style:normal;font-variant:normal;font-weight:200;font-stretch:normal;font-size:74.66666412px;font-family:Lato;-inkscape-font-specification:'Lato Ultra-Light';fill:url(#linearGradient933);fill-opacity:1;letter-spacing:15px">Technology</tspan></text>
<g
     inkscape:groupmode="layer"
     id="layer2"
     inkscape:label="Gradient"
     style="display:inline;opacity:1;" /></svg>